# xmcd
#
# Track frame offsets:
#	150
#	18230
#	48970
#	69617
#	94720
#	127777
#	139857
#	162905
#	200132
#	230975
#
# Disc length: 3179 seconds
#
# Revision: 1
# Processed by: cddbd v1.5.1PL0 Copyright (c) Steve Scherf et al.
# Submitted via: dBpowerAMP V4.0
#
DISCID=890c690a
DTITLE=GeorgeRufusAdams,Covington,GA - America;Somethin'ElseRecords,EMI CDP7-93896-2
DYEAR=1990
DGENRE=Jazz
TTITLE0=AmericaTheBeautiful(KLBates,SamuelAWard;1990,GeorgeRufusAdams,Covington,GA)
TTITLE1=TennesseeWaltz(ReddStewart,PeeWeeKing;1990,GeorgeRufusAdams,Covington,GA)
TTITLE2=Motivation(1990,GeorgeRufusAdams,Covington,GA)
TTITLE3=OldFolksAtHome{SwaneeRiver}(StephenCollinsFoster;1990,GeorgeRufusAdams,Covington,GA)
TTITLE4=Gee,Baby,Ain'tIGoodToYou(AndyRazaf,DonRedman;1990,GeorgeRufusAdams,Covington,GA)
TTITLE5=TakeMeOutToTheBallGame(JackNorworth,AlbertVonTilzer;1990,GeorgeRufusAdams,Covington,GA)
TTITLE6=YouAreMySunshine(JimmieDavis,CharlesMitchell;1990,GeorgeRufusAdams,Covington,GA)
TTITLE7=GeorgiaOnMyMind(StuartGorrell,HoagyCarmichael;1990,GeorgeRufusAdams,Covington,GA)
TTITLE8=HaveYouThankedAmerica(1990,GeorgeRufusAdams,Covington,GA)
TTITLE9=Star-SpangledBanner,The(FrancisScottKey;1990,GeorgeRufusAdams,Covington,GA)
EXTD=more info\nMillenniumMusicProjectFormat, syntax as follows:\nTitle{Subtitle}[info](Lyricist;Composer;Date,Artist,Location)[info]\ncorrections to: windking3@yahoo.com
EXTT0=
EXTT1=
EXTT2=
EXTT3=
EXTT4=
EXTT5=
EXTT6=
EXTT7=
EXTT8=
EXTT9=
PLAYORDER=
